<svg xmlns="http://www.w3.org/2000/svg" width="420" fill="currentColor" height="501" viewBox="0 0 420 501" reserveAspectRatio="xMidYMid meet">
<g transform="translate(-45,551) scale(0.125,-0.125)" stroke="none">
<path d="M1960 4142 c-67 -25 -111 -56 -150 -103 -42 -53 -80 -155 -80 -218 0
-103 68 -232 148 -278 23 -14 47 -33 52 -43 12 -23 13 -310 1 -329 -8 -12 -18
-12 -70 -1 -84 18 -179 9 -244 -24 -28 -14 -104 -69 -167 -122 -129 -108 -288
-224 -307 -224 -7 0 -13 9 -13 20 0 35 -39 100 -73 120 -18 11 -46 20 -62 20
-43 0 -98 -41 -120 -89 -18 -40 -18 -42 0 -82 11 -23 34 -53 53 -67 25 -19 32
-31 28 -47 -3 -12 -60 -134 -127 -271 -172 -354 -243 -500 -275 -569 -15 -33
-38 -77 -51 -97 -21 -35 -27 -38 -67 -38 -84 0 -92 -16 -52 -103 12 -29 38
-88 57 -131 38 -90 78 -136 145 -165 44 -20 65 -21 413 -21 364 0 366 0 417
24 64 30 108 82 141 166 13 36 36 94 51 128 33 80 26 95 -48 102 -59 6 -65 12
-114 128 -13 31 -44 100 -69 152 -25 52 -65 140 -90 195 -91 203 -159 352
-188 411 -42 88 -38 104 30 104 56 0 260 86 357 150 130 86 263 114 348 71 49
-24 81 -55 95 -94 15 -38 15 -1440 1 -1467 -5 -10 -27 -24 -47 -30 -47 -15
-79 -44 -104 -92 -41 -80 -16 -160 76 -236 8 -7 15 -17 15 -21 0 -25 -135 -28
-287 -5 -217 32 -344 2 -396 -95 -32 -58 -35 -96 -8 -111 14 -7 299 -9 883 -8
l863 3 3 45 c2 38 -2 53 -27 87 -61 84 -182 109 -384 79 -154 -23 -287 -20
-287 6 0 5 14 22 31 38 54 49 69 80 69 142 0 87 -40 141 -125 168 -22 7 -46
19 -52 28 -16 20 -19 1425 -3 1467 16 42 92 108 149 129 59 21 78 18 165 -25
66 -33 78 -39 146 -83 118 -76 279 -135 373 -136 24 0 40 -5 43 -15 9 -22 7
-26 -191 -440 -195 -410 -235 -494 -235 -503 0 -21 -38 -41 -84 -44 -61 -4
-78 -24 -55 -65 9 -16 33 -72 54 -126 44 -113 94 -177 162 -207 43 -19 66 -20
413 -20 342 0 370 1 411 19 69 31 110 83 162 206 75 179 74 195 -19 195 l-54
0 -39 83 c-59 126 -81 175 -81 181 0 3 -20 47 -44 98 -24 51 -52 111 -61 133
-22 52 -43 99 -71 155 -12 25 -40 88 -62 140 -23 52 -52 119 -66 147 -33 68
-33 80 7 121 28 29 32 40 32 87 0 46 -4 58 -29 84 -70 73 -204 36 -217 -59 -2
-14 -11 -26 -20 -28 -17 -3 -136 83 -271 196 -47 39 -106 84 -130 100 -83 56
-196 67 -311 30 -58 -18 -70 -19 -78 -7 -5 8 -9 77 -9 154 0 105 4 147 15 169
21 40 20 43 -25 66 -87 45 -146 119 -170 217 -31 120 38 255 163 319 26 13 47
31 47 39 0 37 -129 47 -210 17z m66 -43 c3 -6 -8 -25 -24 -42 -17 -18 -45 -59
-61 -92 -26 -51 -31 -71 -31 -136 0 -95 17 -143 76 -221 27 -36 42 -64 37 -69
-17 -17 -105 25 -153 72 -69 69 -84 107 -85 214 0 96 11 127 65 189 38 43 117
90 162 95 4 1 10 -4 14 -10z m57 -628 c8 -8 10 -2118 1 -2132 -3 -5 -20 -9
-37 -9 -67 0 -62 -87 -64 1071 -2 702 1 1058 8 1071 8 15 17 18 47 12 20 -3
40 -10 45 -13z m392 -350 c35 -19 145 -100 160 -117 8 -10 104 -83 284 -218
l34 -26 -29 0 c-62 0 -241 75 -306 128 -7 5 -51 31 -98 57 -74 41 -94 48 -155
52 -51 3 -77 0 -95 -11 -14 -8 -34 -19 -45 -25 -12 -5 -27 -16 -34 -25 -34
-41 -57 -2 -49 85 5 53 17 67 78 96 76 35 195 37 255 4z m-603 -5 c61 -27 68
-39 68 -121 0 -77 -7 -82 -76 -49 -119 56 -229 40 -394 -60 -111 -66 -169 -96
-210 -105 -58 -13 -44 3 100 113 69 53 159 123 200 156 41 33 82 60 90 60 8 1
26 7 40 15 39 22 120 18 182 -9z m1266 -219 c45 -42 18 -115 -50 -132 -22 -6
-33 -1 -58 23 -33 34 -38 66 -14 100 31 45 78 49 122 9z m-2090 -7 c33 -31 30
-92 -4 -119 -15 -12 -37 -21 -49 -21 -12 0 -34 9 -49 21 -20 16 -26 29 -26 59
0 68 79 105 128 60z m2082 -283 c0 -5 23 -56 50 -113 28 -57 50 -107 50 -111
0 -3 11 -29 24 -57 57 -121 86 -186 121 -271 21 -49 42 -94 46 -100 13 -19 99
-227 99 -241 0 -12 -68 -14 -434 -14 -269 0 -437 4 -441 10 -3 5 11 44 31 87
20 43 56 119 79 168 23 50 61 131 85 180 23 50 61 131 85 180 24 50 64 135 90
190 27 55 55 111 63 123 l16 24 18 -24 c9 -12 18 -27 18 -31z m-2080 -24 c13
-32 50 -113 82 -180 32 -67 58 -124 58 -127 0 -3 27 -62 60 -130 33 -69 60
-127 60 -130 0 -3 18 -44 40 -90 64 -137 91 -206 85 -216 -4 -6 -175 -10 -441
-10 -429 0 -434 0 -434 20 0 21 37 100 233 500 114 233 173 359 188 398 16 41
43 27 69 -35z m507 -944 c10 -10 -7 -70 -54 -182 -24 -57 -92 -114 -144 -122
-24 -3 -202 -5 -395 -3 l-350 3 -42 27 c-46 31 -96 107 -86 132 5 14 41 16
339 16 276 0 335 2 344 14 26 31 -21 36 -368 36 l-341 0 -20 33 c-19 30 -19
33 -3 45 23 16 1103 18 1120 1z m2092 -3 c9 -11 8 -24 -7 -58 -11 -23 -27 -64
-36 -90 -26 -71 -57 -111 -106 -136 -45 -22 -47 -23 -421 -20 l-375 3 -42 28
c-42 27 -82 89 -82 127 0 20 4 20 334 20 265 0 336 3 345 13 27 34 -6 37 -361
37 l-348 0 -20 32 c-36 60 -53 58 555 58 463 0 554 -2 564 -14z m-1417 -381
c95 -65 60 -201 -60 -235 -20 -5 -80 -10 -132 -10 -78 0 -104 4 -145 24 -61
28 -75 44 -82 94 -8 60 11 105 55 130 33 19 52 22 182 22 139 0 147 -1 182
-25z m-65 -311 c62 -46 134 -51 383 -25 133 15 229 6 273 -23 34 -23 62 -69
52 -86 -4 -7 -294 -10 -831 -10 l-824 0 0 25 c0 27 39 71 77 86 46 17 143 20
253 7 63 -7 158 -13 211 -13 87 0 100 3 154 31 52 27 67 30 141 30 68 -1 87
-5 111 -22z"/>
<path d="M2232 4023 c-5 -10 -15 -35 -21 -55 -13 -39 -23 -44 -111 -50 -52 -4
-53 -36 -1 -72 50 -35 55 -48 40 -107 -21 -80 5 -101 67 -54 18 14 42 25 54
25 12 0 38 -11 58 -25 68 -47 88 -29 70 61 l-11 56 43 37 c55 47 53 75 -5 79
-80 5 -90 14 -119 105 -3 10 -15 17 -30 17 -14 0 -29 -8 -34 -17z m106 -143
c27 0 28 -11 3 -41 -13 -17 -17 -33 -14 -56 6 -36 -4 -41 -37 -21 -15 10 -27
10 -55 -1 -43 -15 -49 -12 -36 22 8 20 6 30 -10 48 -27 31 -24 46 12 54 18 4
35 16 41 31 l11 25 32 -31 c17 -16 41 -30 53 -30z"/>
</g>
</svg>
