<svg xmlns="http://www.w3.org/2000/svg" width="900" height="900" viewBox="0 0 900 900" preserveAspectRatio="xMidYMid meet">
<g transform="translate(0,900) scale(0.1,-0.1)" stroke="none">
<path d="M5985 7584 c-28 -4 -72 -20 -140 -49 -29 -12 -110 -45 -265 -107 -41
-17 -88 -36 -105 -43 -72 -32 -135 -55 -147 -55 -8 0 -27 14 -44 31 -44 47
-104 85 -169 108 -56 20 -81 21 -421 21 -384 0 -399 -2 -499 -54 -55 -28 -134
-115 -165 -181 -38 -83 -39 -96 -39 -1570 -1 -1099 -4 -1434 -13 -1443 -18
-18 -73 -14 -91 6 -15 17 -17 139 -17 1454 0 790 -3 1451 -6 1470 -13 78 -62
160 -133 222 -40 36 -68 51 -141 77 -50 17 -85 19 -416 19 -328 0 -366 -2
-416 -19 -101 -35 -193 -108 -229 -183 -53 -109 -49 12 -49 -1572 0 -1629 7
-1490 -72 -1484 l-43 3 -5 1470 c-4 1212 -7 1475 -19 1500 -7 17 -22 49 -33
73 -23 51 -100 131 -148 156 -107 55 -117 56 -504 56 -315 0 -367 -2 -411 -17
-99 -34 -200 -116 -241 -198 -45 -87 -44 -57 -44 -1565 0 -830 -4 -1440 -9
-1454 -8 -20 -18 -24 -64 -28 -61 -5 -104 -32 -124 -78 -9 -22 -12 -170 -14
-572 -2 -617 -10 -550 90 -695 30 -43 87 -126 128 -185 182 -268 228 -335 300
-441 42 -61 109 -159 148 -217 39 -58 107 -157 150 -220 43 -63 106 -155 139
-205 111 -167 143 -203 187 -215 27 -7 147 -10 347 -8 289 3 309 4 334 23 61
46 58 7 58 773 0 385 3 707 6 716 6 15 178 16 1854 16 1676 0 1848 -1 1854
-16 3 -9 6 -332 6 -719 l0 -702 39 -44 39 -44 340 0 341 0 36 35 c20 19 42 45
48 57 7 12 50 78 96 145 147 214 246 359 261 383 8 13 39 59 69 102 30 43 100
146 156 228 56 83 126 185 156 228 30 43 61 89 69 102 8 13 38 56 66 97 28 40
70 102 95 138 85 124 79 73 79 667 0 528 0 529 -22 573 -42 82 -27 80 -561 80
l-467 0 12 20 c7 12 24 23 38 27 14 3 36 11 50 18 14 7 45 21 70 30 25 9 57
23 72 31 14 8 32 14 40 14 38 1 98 85 98 137 0 27 -21 95 -39 131 -5 9 -23 53
-41 97 -17 44 -37 94 -45 110 -7 17 -20 50 -30 75 -10 25 -23 59 -30 75 -8 17
-28 66 -45 110 -18 44 -38 94 -45 110 -7 17 -28 66 -45 110 -17 44 -38 94 -45
110 -7 17 -27 66 -45 110 -17 44 -37 94 -45 110 -7 17 -20 50 -30 75 -10 25
-23 59 -30 75 -8 17 -28 66 -45 110 -18 44 -38 94 -45 110 -7 17 -28 66 -45
110 -17 44 -38 94 -45 110 -7 17 -27 66 -45 110 -17 44 -37 94 -45 110 -7 17
-20 50 -30 75 -10 25 -23 59 -30 75 -8 17 -28 66 -45 110 -18 44 -38 92 -46
107 -8 14 -14 35 -14 45 0 10 -4 23 -9 29 -5 5 -19 34 -31 64 -12 30 -28 69
-35 85 -7 17 -28 66 -45 110 -17 44 -38 94 -45 110 -8 17 -16 40 -20 52 -22
79 -130 191 -226 235 -37 17 -169 30 -224 22z m118 -295 c27 -14 66 -59 67
-77 0 -8 6 -26 14 -40 8 -15 22 -47 31 -72 9 -25 22 -54 27 -64 6 -11 14 -31
18 -45 4 -14 11 -33 15 -42 7 -18 -22 -34 -125 -74 -25 -10 -60 -24 -77 -31
-18 -8 -48 -20 -65 -28 -18 -7 -53 -21 -78 -31 -25 -10 -58 -23 -75 -30 -16
-8 -66 -28 -110 -45 -44 -18 -91 -37 -105 -44 -48 -24 -110 -40 -118 -30 -5 5
-16 29 -26 54 -10 25 -24 59 -31 75 -58 135 -75 181 -75 204 0 30 54 101 77
101 8 0 27 6 41 14 15 8 63 28 107 46 44 17 94 37 110 45 17 7 50 20 75 30 25
10 60 24 78 31 17 8 47 20 65 28 17 7 43 18 57 24 33 14 76 15 103 1z m-4072
-117 c12 -13 25 -40 30 -60 12 -51 11 -329 -1 -337 -7 -4 -602 -8 -797 -5 -10
0 -13 43 -13 179 0 177 0 180 25 210 14 16 36 32 48 34 12 3 171 4 354 3 l332
-1 22 -23z m1489 15 c13 -7 35 -28 47 -46 22 -33 23 -42 21 -200 l-3 -166
-393 -5 c-216 -3 -402 -2 -413 2 -20 8 -21 15 -17 177 3 154 5 172 24 198 11
15 32 34 45 40 34 18 654 18 689 0z m1547 -20 l28 -27 3 -184 c3 -168 2 -185
-14 -188 -10 -1 -193 -1 -408 2 l-391 5 -3 165 c-3 143 -1 169 15 199 31 59
42 61 410 58 l333 -2 27 -28z m1339 -534 c3 -10 11 -31 18 -48 8 -16 21 -50
31 -75 10 -25 24 -60 31 -77 8 -18 20 -48 28 -65 7 -18 21 -53 31 -78 10 -25
23 -58 30 -75 8 -16 28 -66 45 -110 18 -44 38 -93 45 -110 7 -16 28 -66 45
-110 17 -44 37 -93 45 -110 7 -16 20 -50 30 -75 10 -25 24 -60 31 -77 8 -18
20 -48 28 -65 7 -18 21 -53 31 -78 10 -25 23 -58 30 -75 50 -117 53 -135 20
-135 -7 0 -26 -6 -42 -14 -15 -8 -64 -29 -108 -46 -44 -18 -93 -38 -110 -45
-16 -7 -66 -28 -110 -45 -44 -17 -93 -37 -110 -45 -16 -7 -50 -20 -75 -30 -53
-21 -95 -38 -132 -56 -24 -11 -31 -10 -48 6 -11 10 -20 24 -20 31 0 7 -7 30
-16 51 -29 67 -42 96 -74 178 -18 44 -38 94 -45 110 -7 17 -28 66 -45 110 -17
44 -38 94 -45 110 -7 17 -27 65 -44 108 -17 42 -45 112 -62 155 -17 42 -37 91
-44 107 -7 17 -28 66 -45 110 -18 44 -38 94 -45 110 -56 126 -68 165 -56 179
7 9 23 18 34 21 21 6 138 52 202 80 17 7 50 20 75 30 25 10 59 23 75 30 17 8
82 34 145 60 63 26 129 53 145 60 43 19 75 18 81 -2z m-4339 -893 c2 -399 -1
-731 -5 -738 -7 -10 -94 -12 -398 -13 -214 0 -395 0 -401 1 -10 0 -13 155 -13
740 l0 740 408 -2 407 -3 2 -725z m1520 0 c2 -399 -1 -731 -5 -738 -12 -17
-786 -19 -808 -2 -12 11 -14 118 -14 735 0 397 3 725 7 728 4 4 189 6 412 5
l406 -3 2 -725z m1511 -7 c2 -690 1 -733 -15 -740 -10 -4 -193 -6 -408 -3
l-390 5 -3 725 c-1 399 0 731 3 738 3 10 90 12 407 10 l403 -3 3 -732z m322
383 c0 -12 26 -79 75 -191 7 -16 27 -66 45 -110 17 -44 37 -93 45 -110 7 -16
20 -50 30 -75 10 -25 23 -58 30 -75 8 -16 28 -66 45 -110 18 -44 38 -93 45
-110 7 -16 28 -66 45 -110 17 -44 38 -93 45 -110 7 -16 27 -66 45 -110 17 -44
37 -93 45 -110 7 -16 20 -50 30 -75 10 -25 23 -58 30 -75 8 -16 28 -66 45
-110 18 -44 38 -93 45 -110 7 -16 28 -66 45 -110 17 -44 38 -94 47 -111 8 -18
13 -40 11 -50 -3 -18 -21 -19 -377 -22 -267 -2 -378 1 -387 9 -12 10 -14 168
-14 949 0 515 3 940 6 943 9 9 24 -2 24 -17z m1660 -1146 c10 -19 32 -71 50
-115 17 -44 37 -93 45 -110 66 -155 67 -151 -30 -193 -128 -56 -136 -59 -220
-92 -44 -17 -93 -37 -110 -45 -16 -7 -50 -20 -75 -30 -25 -10 -58 -23 -75 -30
-26 -12 -139 -58 -172 -72 -13 -5 -29 25 -83 162 -18 44 -38 94 -45 110 -57
130 -60 158 -17 171 19 7 152 59 197 79 17 7 50 20 75 30 25 10 59 23 75 30
17 8 66 28 110 45 44 17 94 38 110 45 86 37 131 54 138 52 5 -1 17 -18 27 -37z
m-5022 -282 c17 -17 17 -418 0 -441 -12 -16 -46 -17 -408 -15 l-395 3 -3 220
c-1 121 0 225 2 232 7 18 786 19 804 1z m1530 -213 c2 -198 1 -221 -15 -232
-13 -10 -108 -13 -397 -13 -339 0 -381 2 -398 17 -16 15 -18 35 -18 223 0 148
3 209 12 218 9 9 110 12 413 10 l400 -3 3 -220z m1510 1 c2 -153 -1 -223 -9
-232 -16 -19 -778 -21 -797 -2 -13 13 -18 439 -5 451 4 4 187 6 407 5 l401 -3
3 -219z m2840 -898 c1 -203 -1 -368 -5 -368 -36 0 -6871 0 -6880 0 -10 0 -13
79 -13 363 0 200 3 367 7 370 3 4 1555 6 3447 5 l3441 -3 3 -367z m-6150
-1105 c2 -354 0 -443 -11 -443 -7 0 -17 9 -22 20 -6 11 -48 75 -94 142 -46 68
-130 191 -186 273 -56 83 -122 180 -148 218 -26 37 -67 97 -92 133 -77 111
-93 105 253 102 l297 -3 3 -442z m552 428 c11 -21 15 -1177 4 -1205 -9 -24
-249 -24 -258 0 -8 20 -8 1188 0 1208 5 13 26 16 125 16 107 0 119 -2 129 -19z
m4555 -601 l0 -615 -125 0 -125 0 -3 605 c-1 333 0 611 3 618 3 9 35 12 127
10 l123 -3 0 -615z m899 598 c-3 -13 -11 -29 -17 -37 -6 -7 -16 -21 -22 -32
-5 -10 -33 -51 -61 -91 -74 -107 -356 -520 -384 -563 -8 -12 -33 -50 -55 -84
-22 -33 -46 -61 -52 -61 -10 0 -13 94 -13 438 0 241 3 442 7 445 3 4 141 7
305 7 l299 0 -7 -22z"/>
</g>
</svg>
