<svg xmlns="http://www.w3.org/2000/svg" viewBox="0 0 32 32"><path d="M8.168 1a3.3 3.3 0 0 0-3.297 3.297v.393h-.064a3.03 3.03 0 0 0-3.026 3.026v20.258A3.03 3.03 0 0 0 4.807 31h22.386a3.03 3.03 0 0 0 3.026-3.026V7.716a3.03 3.03 0 0 0-3.026-3.026h-.064v-.393C27.13 2.48 25.65 1 23.832 1s-3.297 1.479-3.297 3.297v.393h-1.238v-.393C19.297 2.48 17.818 1 16 1s-3.297 1.479-3.297 3.297v.393h-1.238v-.393A3.3 3.3 0 0 0 8.168 1zM6.871 4.297C6.87 3.582 7.453 3 8.168 3s1.297.582 1.297 1.297v2.786c0 .715-.582 1.297-1.297 1.297s-1.297-.582-1.297-1.297V4.297zm21.348 23.677c0 .566-.46 1.026-1.026 1.026H4.807c-.565 0-1.026-.46-1.026-1.026V13.132H28.22v14.842zM22.535 4.297c0-.715.582-1.297 1.297-1.297s1.297.582 1.297 1.297v2.786c0 .715-.582 1.297-1.297 1.297s-1.297-.582-1.297-1.297V4.297zm-7.832 0C14.703 3.582 15.285 3 16 3s1.297.582 1.297 1.297v2.786c0 .715-.582 1.297-1.297 1.297s-1.297-.582-1.297-1.297V4.297zm-2 2.393v.393c0 1.818 1.479 3.297 3.297 3.297s3.297-1.48 3.297-3.297V6.69h1.238v.393c0 1.818 1.479 3.297 3.297 3.297s3.297-1.48 3.297-3.297V6.69h.064c.565 0 1.026.46 1.026 1.026v3.416H3.78V7.716c0-.566.46-1.026 1.026-1.026h.064v.393c0 1.818 1.479 3.297 3.297 3.297s3.297-1.48 3.297-3.297V6.69h1.238z"/><path d="M16.258 27.683a6.84 6.84 0 0 0 6.264-4.094 1 1 0 0 0-1.327-1.313c-.6.271-1.256.409-1.948.409a4.865 4.865 0 0 1-4.855-4.865c0-.684.14-1.344.418-1.96a1 1 0 0 0-1.311-1.327 6.852 6.852 0 0 0-4.105 6.285 6.873 6.873 0 0 0 6.864 6.865zm-3.866-9.822c.022 3.752 3.064 6.8 6.81 6.824a4.838 4.838 0 0 1-2.944.998 4.87 4.87 0 0 1-3.866-7.822z"/><path d="M17.204 19.358h.492v.492a1 1 0 0 0 2 0v-.492h.492a1 1 0 0 0 0-2h-.492v-.492a1 1 0 0 0-2 0v.492h-.492a1 1 0 0 0 0 2z"/></svg>