<svg xmlns="http://www.w3.org/2000/svg" width="655.359" height="655.359" fill-rule="evenodd" clip-rule="evenodd" image-rendering="optimizeQuality" shape-rendering="geometricPrecision" text-rendering="geometricPrecision" viewBox="0 0 6.827 6.827" id="mosque">
  <rect width="6.827" height="6.827" fill="#d32f2f" rx="1.28" ry="1.28"></rect>
  <path fill="#fffffe" fill-rule="nonzero" d="M2.946 3.103c.146-.078.292-.138.43-.176a.067.067 0 0 1 .041-.002 2.62 2.62 0 0 1 1.308.913c.227.312.345.67.247 1.029-.02.07-.047.14-.083.209a.067.067 0 0 1-.061.04H1.973a.067.067 0 0 1-.06-.036 1.045 1.045 0 0 1-.085-.213c-.099-.36.02-.717.246-1.028a2.62 2.62 0 0 1 .872-.736zm.43.2a1.69 1.69 0 0 0-.838.588c-.148.203-.225.437-.16.673a.688.688 0 0 0 .055.14.067.067 0 0 0 .06.036h1.814a.067.067 0 0 0 .061-.04.687.687 0 0 0 .054-.136c.065-.236-.012-.47-.16-.674a1.69 1.69 0 0 0-.845-.59.067.067 0 0 0-.041.002z"></path>
  <path fill="#fffffe" d="M1.498 4.95h3.804a.098.098 0 0 1 0 .197H1.498a.098.098 0 0 1 0-.196zm1.878-3.26a.35.35 0 0 1 .319.271.467.467 0 0 1-.007.255.4.4 0 0 1-.152.213c-.152.105-.332.064-.482-.025a.098.098 0 0 1 .1-.168.387.387 0 0 0 .165.058.165.165 0 0 0 .106-.026.207.207 0 0 0 .076-.11.27.27 0 0 0 .004-.147.16.16 0 0 0-.147-.127.098.098 0 0 1-.088-.106.098.098 0 0 1 .106-.088z"></path>
  <path fill="#fffffe" d="M3.302 2.887v-.5a.098.098 0 0 1 .196 0v.498l-.005-.002-.06-.017a.133.133 0 0 0-.076.003 5.029 5.029 0 0 0-.055.018z"></path>
</svg>
