<svg xmlns="http://www.w3.org/2000/svg" viewBox="0 0 32 32"><g id="svg"><path d="M13.02 6.91 8.71 5.79c-.3-.07-.62-.01-.86.18-.25.19-.39.48-.39.79v9.48c0 .45.31.85.75.97l4.31 1.12c.08.02.17.03.25.03.22 0 .43-.07.61-.21.25-.19.39-.48.39-.79V7.88c0-.46-.31-.85-.75-.97z"/><path d="m1.77 23.16 2.77.64v5.62c0 .33.16.64.44.82.16.12.36.18.56.18.12 0 .24-.02.36-.07L16 26.51l10.1 3.84c.12.05.24.07.36.07.2 0 .4-.06.56-.18.28-.18.44-.49.44-.82V23.8l2.77-.64c.45-.11.77-.51.77-.98V5.53a1 1 0 0 0-1.23-.97l-2 .47V2.58c0-.31-.14-.6-.39-.79-.24-.19-.56-.25-.86-.18L16 4.35 5.48 1.61c-.3-.07-.62-.01-.86.18-.25.19-.39.48-.39.79v2.45l-2-.47A1 1 0 0 0 1 5.53v16.65c0 .47.32.87.77.98zM17 6.15l8.77-2.28v14.09L17 20.24V6.15zm0 16.16 10.02-2.61c.44-.11.75-.51.75-.96V7.08L29 6.79v14.6l-12 2.8v-1.88zM6.23 3.87 15 6.15v14.09l-8.77-2.28V3.87zM3 6.79l1.23.29v11.66c0 .45.31.85.75.96L15 22.31v1.88l-12-2.8V6.79z"/><path d="m23.29 5.79-4.31 1.12c-.44.12-.75.51-.75.97v9.48c0 .31.14.6.39.79.18.14.39.21.61.21.08 0 .17-.01.25-.03l4.31-1.12c.44-.12.75-.52.75-.97V6.76c0-.31-.14-.6-.39-.79-.24-.19-.56-.25-.86-.18z"/></g></svg>