<svg width="512" height="512" viewBox="0 0 512 512" fill="none" xmlns="http://www.w3.org/2000/svg">
<g clip-path="url(#clip0_11_2)">
<g clip-path="url(#clip1_11_2)">
<path d="M308.738 147.422C307.946 147.566 305.534 148.034 303.338 148.466C280.694 153.038 263.414 182.558 270.974 203.726L271.838 206.138L262.478 215.534C250.85 227.162 252.794 227.45 237.062 212.006L224.894 200.054L225.974 198.038C226.586 196.85 227.018 194.006 227.018 191.27V186.518L232.238 181.226C238.178 175.214 244.19 171.074 251.282 168.194C271.514 159.914 254.99 146.63 228.206 149.69C212.33 151.49 205.274 155.774 184.25 176.438C165.314 195.122 162.938 197.894 162.938 201.674C162.938 204.626 162.146 205.274 158.654 205.274C154.406 205.274 144.002 215.282 143.174 220.178C142.526 224.03 143.462 225.794 149.978 232.814C167.042 251.282 170.786 252.65 179.966 243.974C185.582 238.646 187.418 235.73 187.418 232.022C187.418 230.114 187.67 229.898 190.658 229.502C192.458 229.25 194.87 228.566 195.986 227.99L198.038 226.91L209.99 239.078C225.542 254.918 225.326 252.686 212.438 265.574L201.998 276.014L199.226 275.006C194.366 273.314 179.39 273.746 173.738 275.726C160.274 280.514 149.15 291.782 144.938 304.886C141.302 316.118 143.858 334.37 149.546 337.826C154.982 341.138 157.214 340.058 169.238 328.142L178.778 318.674L182.882 322.814L186.986 326.918L177.842 336.242C163.766 350.57 163.082 357.41 175.394 361.19C207.074 370.982 239.51 339.662 231.014 307.478L229.97 303.554L239.438 294.014L248.942 284.51L251.03 286.454C253.01 288.326 304.418 341.858 315.218 353.306C325.982 364.682 329.798 364.07 345.602 348.374C357.014 337.07 358.778 334.622 358.778 330.23C358.778 324.002 361.55 327.026 315.362 282.818C297.974 266.186 283.61 252.11 283.358 251.534C283.106 250.85 285.878 247.574 291.17 242.282L299.378 234.11L303.338 235.154C330.23 242.354 358.778 220.466 358.742 192.674C358.742 181.514 355.466 173.09 350.498 171.434C345.566 169.814 343.91 170.714 333.074 181.118L322.994 190.802L319.286 187.022C314.534 182.234 314.174 183.242 324.254 173.234C335.594 161.966 336.962 159.122 333.65 153.722C330.914 149.222 317.126 145.766 308.738 147.422ZM310.142 168.014C296.75 182.054 296.786 184.178 310.358 197.534L318.242 205.274H322.706C327.674 205.274 327.386 205.454 339.95 193.43L345.242 188.354L344.954 194.186C343.838 215.246 322.418 228.35 302.006 220.394L295.958 218.054L284.222 229.79C271.118 242.858 272.702 242.21 267.158 237.026C263.486 233.606 263.018 234.398 276.302 221.15L288.11 209.342L286.634 206.426C276.122 185.906 290.594 161.138 313.31 160.706L317.162 160.634L310.142 168.014ZM228.458 166.214C218.27 174.998 213.266 182.162 212.762 188.606C212.51 192.278 212.15 192.998 209.126 196.094L205.814 199.55L225.47 219.206C242.858 236.594 245.342 238.826 247.07 238.574C248.798 238.322 254.378 243.434 297.11 284.15L345.242 330.05L336.71 338.618L328.178 347.186L322.058 340.85C270.326 287.462 236.27 250.922 236.558 249.086C236.81 247.322 234.65 244.946 217.19 227.486L197.57 207.866L193.61 211.61C190.586 214.454 189.146 215.354 187.418 215.354C181.694 215.354 173.018 224.138 173.018 229.97C173.018 235.334 171.362 234.902 164.198 227.774C156.926 220.502 156.926 220.466 163.838 219.314C169.31 218.45 177.338 209.846 177.338 204.878C177.338 201.998 183.53 195.194 200.414 179.426C211.826 168.77 215.534 166.358 223.562 164.234C232.382 161.93 233.066 162.218 228.458 166.214ZM235.01 269.174C240.194 274.718 240.95 273.026 226.694 287.318L213.878 300.134L215.822 304.958C224.246 325.982 211.97 347.474 190.622 349.094C183.818 349.598 183.854 349.454 192.818 340.634C204.878 328.754 204.77 325.838 191.882 313.022C180.11 301.322 177.986 301.358 165.026 313.346L156.458 321.302V318.458C156.458 296.03 180.362 280.586 200.45 289.982L205.238 292.25L218.09 279.362C232.49 264.962 231.59 265.502 235.01 269.174Z" />
</g>
<path d="M248.933 20.7116C248.045 21.189 246.801 21.6066 246.268 21.6066C245.735 21.6066 231.344 35.688 214.347 52.9316L183.315 84.2566H140.201C97.8572 84.2566 97.0281 84.2566 93.8301 85.5096C91.7573 86.2853 89.6253 87.777 87.9671 89.5073C83.1109 94.6386 83.3478 91.8343 83.3478 141.179V184.974L52.6114 215.941C18.9732 249.772 19.3878 249.235 19.3878 256.097C19.3878 262.958 18.9732 262.421 52.6114 296.312L83.3478 327.219V370.895C83.3478 420.598 83.1109 418.032 88.204 423.044C93.4155 428.175 90.3952 427.877 139.727 427.877L183.315 427.937L214.051 458.904C247.63 492.794 247.097 492.377 253.908 492.377C260.718 492.377 260.185 492.794 293.764 458.904L324.441 427.937H368.384C418.131 427.937 414.815 428.235 419.848 422.984C424.645 418.032 424.468 420.18 424.468 370.836V327.16L455.441 295.954C489.494 261.646 488.428 262.958 488.428 255.56C488.428 249.295 487.658 248.4 454.612 215.225L424.468 185.034V141.358C424.468 91.8343 424.705 94.1613 419.73 89.209C414.578 84.0776 416.65 84.2566 367.496 84.2566H324.382L294.416 53.8266C268.062 27.096 263.916 23.158 260.718 21.6066C256.573 19.578 251.835 19.22 248.933 20.7116ZM256.869 31.6306C257.698 32.1676 288.553 62.9556 325.448 100.068L392.488 167.432V174.771C392.488 179.902 392.31 182.11 391.836 182.11C391.422 182.11 360.982 151.74 324.145 114.627C287.309 77.5143 256.632 46.9053 255.981 46.6666C252.842 45.4733 251.717 46.3683 232.588 65.5213L213.874 84.2566H206.648C202.088 84.2566 199.423 84.018 199.423 83.66C199.423 83.302 211.149 71.1896 225.54 56.81C248.992 33.2416 251.835 30.5566 253.493 30.5566C254.559 30.5566 256.04 31.034 256.869 31.6306ZM266.167 71.2493C272.444 77.574 277.597 83.0633 277.597 83.481C277.597 84.0776 272.563 84.2566 253.908 84.2566C235.43 84.2566 230.219 84.0776 230.219 83.5406C230.219 82.4666 252.842 59.7933 253.908 59.7933C254.382 59.7933 259.889 64.9843 266.167 71.2493ZM294.416 99.8296C297.199 102.515 299.331 104.901 299.154 105.2C298.976 105.498 259.534 105.737 204.635 105.737C101.233 105.737 107.866 105.498 105.675 109.257C104.786 110.808 104.668 113.553 104.668 137.241V163.494L99.8708 168.327C97.265 171.012 94.8961 173.041 94.5408 172.862C94.2447 172.623 94.0078 158.243 94.0078 135.749V99.054L96.0213 97.0253L98.0349 94.9966H193.679H289.382L294.416 99.8296ZM411.794 97.0253L413.808 99.054V195.535V292.016L408.952 297.028C406.287 299.773 403.918 302.04 403.622 302.04C403.385 302.04 403.148 259.199 403.148 206.812C403.148 101.202 403.444 108.72 399.239 106.751C397.403 105.856 394.264 105.737 371.464 105.737H345.702L340.964 100.963C338.299 98.338 336.345 95.8916 336.523 95.5933C336.76 95.2353 350.44 94.9966 373.359 94.9966H409.781L411.794 97.0253ZM149.914 116.954C150.328 117.61 116.275 151.859 115.742 151.322C115.209 150.785 115.209 117.431 115.742 116.894C116.275 116.298 149.558 116.357 149.914 116.954ZM180.472 117.133C180.472 117.431 150.447 148.04 113.788 185.093C77.0702 222.087 46.8077 252.755 46.5708 253.233C46.2747 253.65 46.0378 255.082 46.0378 256.395C46.0378 258.722 46.3931 259.14 64.6928 277.577L83.3478 296.372V303.651C83.3478 308.544 83.1109 310.99 82.6963 310.99C81.5119 310.99 30.6992 259.259 30.2847 257.648C30.107 256.813 30.107 255.381 30.2847 254.545C30.5215 253.591 55.2764 228.173 98.331 184.735L165.963 116.536L173.247 116.477C177.926 116.477 180.472 116.715 180.472 117.133ZM351.802 157.527L392.488 198.518V256.097V313.675L351.743 354.726L311.057 395.717H253.908H196.758L156.073 354.726L115.328 313.675V256.097V198.518L156.013 157.527L196.758 116.477H253.908H311.057L351.802 157.527ZM392.369 133.482C392.429 142.67 392.369 150.546 392.192 151.024C391.955 151.62 386.447 146.489 374.721 134.675C365.305 125.188 357.724 117.252 357.902 116.954C358.08 116.656 365.838 116.536 375.195 116.596L392.192 116.775L392.369 133.482ZM451.414 227.099C467.463 243.268 477.294 253.591 477.531 254.545C477.709 255.381 477.709 256.753 477.531 257.588C477.294 258.424 449.874 286.586 409.485 327.398L341.853 395.717H334.568C329.416 395.717 327.343 395.538 327.343 395.001C327.343 394.643 357.547 363.855 394.442 326.682L461.482 259.08L461.659 256.276L461.837 253.531L443.182 234.676L424.468 215.822V208.483C424.468 203.59 424.705 201.203 425.119 201.203C425.475 201.203 437.319 212.838 451.414 227.099ZM104.668 305.62C104.668 389.213 104.786 401.385 105.556 402.877C107.451 406.576 106.563 406.457 135.463 406.457H161.817L166.733 411.349C169.398 414.034 171.411 416.421 171.115 416.719C170.819 417.018 154 417.137 133.746 417.077L96.8504 416.898L95.4291 415.228L94.0078 413.557V316.837V220.177L98.864 215.165C101.529 212.421 103.898 210.153 104.194 210.153C104.431 210.153 104.668 253.113 104.668 305.62ZM83.2293 255.798C83.2885 271.133 83.1701 279.188 82.7555 279.605C82.0449 280.321 59.0667 257.529 59.0667 256.097C59.0667 255.023 81.6303 232.17 82.4594 232.409C82.8148 232.528 83.1109 240.941 83.2293 255.798ZM437.319 243.686C443.597 250.011 448.749 255.619 448.749 256.097C448.749 257.409 425.948 280.202 425.119 279.725C424.409 279.247 424.172 233.364 424.882 232.648C425.06 232.409 425.415 232.23 425.593 232.23C425.771 232.23 431.041 237.421 437.319 243.686ZM183.848 397.805L251.243 465.527H253.908H256.573L275.228 446.732L293.883 427.937H301.108C305.372 427.937 308.392 428.175 308.392 428.533C308.392 429.428 257.58 480.085 255.744 480.98C254.678 481.458 253.375 481.637 252.427 481.398C251.361 481.1 228.087 458.128 183.078 412.901L115.328 344.761V337.422C115.328 333.067 115.565 330.083 115.92 330.083C116.216 330.083 146.775 360.573 183.848 397.805ZM413.808 376.385C413.808 400.43 413.571 413.497 413.216 414.273C411.557 417.376 416.591 417.197 313.781 417.197H218.434L213.4 412.364C210.616 409.679 208.484 407.292 208.662 406.994C208.84 406.695 248.637 406.457 303.951 406.457H398.943L401.075 404.607L403.148 402.757V375.967V349.177L407.945 344.105C410.61 341.301 412.979 339.212 413.275 339.391C413.571 339.57 413.808 355.979 413.808 376.385ZM149.795 395.239C149.499 395.538 141.741 395.657 132.443 395.597L115.624 395.418L115.446 378.712C115.387 369.523 115.446 361.647 115.624 361.17C115.861 360.573 121.368 365.704 133.094 377.518C142.511 387.005 150.032 395.001 149.795 395.239ZM392.369 378.473L392.192 395.418L375.609 395.597C366.489 395.657 358.672 395.597 358.198 395.418C357.606 395.18 362.699 389.631 374.425 377.817C383.841 368.33 391.777 360.752 392.014 360.991C392.31 361.289 392.429 369.105 392.369 378.473ZM277.597 428.653C277.597 429.727 254.974 452.4 253.908 452.4C252.842 452.4 230.219 429.786 230.219 428.712C230.219 428.116 235.253 427.937 253.908 427.937C272.385 427.937 277.597 428.116 277.597 428.653Z" />
</g>
<defs>
<clipPath id="clip0_11_2">
<rect width="512" height="512" fill="white"/>
</clipPath>
<clipPath id="clip1_11_2">
<rect width="216" height="216" fill="white" transform="translate(143 147)"/>
</clipPath>
</defs>
</svg>
